<svg width="296" height="95" viewBox="0 0 296 95" fill="none" xmlns="http://www.w3.org/2000/svg">
<path d="M10.2345 94.0021L-0.00585938 0H18.6939L24.0367 59.3121L29.3795 0H47.1887L52.3089 59.3121L57.4291 0H76.3514L65.8885 94.0021H42.959L38.1728 48.6972L33.6092 94.0021H10.2345Z" fill="black"/>
<path d="M81.7798 0H111.165C115.84 0 119.439 1.05784 121.962 3.17352C124.559 5.21625 126.303 8.13444 127.194 11.9281C128.084 15.6488 128.529 20.4273 128.529 26.2637C128.529 31.5894 127.824 35.7478 126.414 38.7389C125.004 41.7301 122.556 43.8093 119.068 44.9765C121.962 45.5602 124.04 46.9828 125.301 49.2444C126.637 51.506 127.305 54.5701 127.305 58.4367L127.082 94.0021H108.382V57.2329C108.382 54.6065 107.863 52.9286 106.824 52.199C105.785 51.4695 103.893 51.1047 101.147 51.1047V94.0021H81.7798V0ZM105.822 34.7994C108.494 34.7994 109.829 31.9541 109.829 26.2637C109.829 23.7832 109.718 21.9229 109.496 20.6826C109.273 19.4424 108.865 18.6034 108.271 18.1657C107.678 17.655 106.824 17.3997 105.711 17.3997H101.259V34.7994H105.822Z" fill="black"/>
<path d="M133.935 94.0021V0H152.412V94.0021H133.935Z" fill="black"/>
<path d="M168.28 94.0021V18.0563H156.927V0H198.778V18.0563H187.425V94.0021H168.28Z" fill="black"/>
<path d="M204.175 94.0021V0H242.465V18.1657H223.654V36.4408H241.686V54.1688H223.654V75.7269H243.69V94.0021H204.175Z" fill="black"/>
<path d="M248.375 0H277.761C282.435 0 286.034 1.05784 288.557 3.17352C291.155 5.21625 292.898 8.13444 293.789 11.9281C294.679 15.6488 295.125 20.4273 295.125 26.2637C295.125 31.5894 294.42 35.7478 293.01 38.7389C291.6 41.7301 289.151 43.8093 285.663 44.9765C288.557 45.5602 290.635 46.9828 291.897 49.2444C293.232 51.506 293.9 54.5701 293.9 58.4367L293.678 94.0021H274.978V57.2329C274.978 54.6065 274.458 52.9286 273.42 52.199C272.381 51.4695 270.488 51.1047 267.743 51.1047V94.0021H248.375V0ZM272.418 34.7994C275.089 34.7994 276.425 31.9541 276.425 26.2637C276.425 23.7832 276.314 21.9229 276.091 20.6826C275.868 19.4424 275.46 18.6034 274.867 18.1657C274.273 17.655 273.42 17.3997 272.306 17.3997H267.854V34.7994H272.418Z" fill="black"/>
</svg>
